<svg xmlns="http://www.w3.org/2000/svg" xmlns:xlink="http://www.w3.org/1999/xlink" width="500" zoomAndPan="magnify" viewBox="0 0 375 374.999991" height="500" preserveAspectRatio="xMidYMid meet" version="1.0"><defs><g/><clipPath id="ee76203156"><path d="M 136.773438 99.335938 L 237.996094 99.335938 L 237.996094 196.085938 L 136.773438 196.085938 Z M 136.773438 99.335938 " clip-rule="nonzero"/></clipPath></defs><g clip-path="url(#ee76203156)"><path fill="#1a1a1a" d="M 213.894531 99.335938 L 165.503906 147.8125 L 213.894531 196.085938 L 237.992188 196.085938 L 189.597656 147.8125 L 237.992188 99.335938 Z M 174.167969 196.085938 L 141.40625 163.265625 L 136.75 158.824219 L 136.75 196.085938 Z M 141.40625 152.273438 L 185.144531 196.085938 L 202.902344 196.085938 L 154.507812 147.8125 L 202.902344 99.335938 L 185.144531 99.335938 L 141.40625 143.164062 L 136.75 147.8125 Z M 141.40625 132.152344 L 174.167969 99.335938 L 136.75 99.335938 L 136.75 136.59375 Z M 141.40625 132.152344 " fill-opacity="1" fill-rule="nonzero"/></g><g fill="#1a1a1a" fill-opacity="1"><g transform="translate(99.549797, 244.989373)"><g><path d="M 12.234375 -9.140625 L 9.578125 -6.296875 L 9.578125 0 L 2.515625 0 L 2.515625 -25.203125 L 9.578125 -25.203125 L 9.578125 -14.71875 L 19.328125 -25.203125 L 27.1875 -25.203125 L 16.890625 -14.046875 L 27.71875 0 L 19.4375 0 Z M 12.234375 -9.140625 "/></g></g></g><g fill="#1a1a1a" fill-opacity="1"><g transform="translate(128.277847, 244.989373)"><g><path d="M 19.40625 -4.890625 L 8.75 -4.890625 L 6.765625 0 L -0.5 0 L 10.625 -25.203125 L 17.640625 -25.203125 L 28.796875 0 L 21.390625 0 Z M 17.3125 -10.15625 L 14.078125 -18.21875 L 10.84375 -10.15625 Z M 17.3125 -10.15625 "/></g></g></g><g fill="#1a1a1a" fill-opacity="1"><g transform="translate(158.2299, 244.989373)"><g><path d="M 13.53125 -6.703125 L 9.640625 -6.703125 L 9.640625 0 L 2.515625 0 L 2.515625 -25.203125 L 14.046875 -25.203125 C 16.316406 -25.203125 18.289062 -24.820312 19.96875 -24.0625 C 21.65625 -23.3125 22.953125 -22.234375 23.859375 -20.828125 C 24.773438 -19.421875 25.234375 -17.769531 25.234375 -15.875 C 25.234375 -14.050781 24.804688 -12.460938 23.953125 -11.109375 C 23.109375 -9.753906 21.890625 -8.691406 20.296875 -7.921875 L 25.734375 0 L 18.109375 0 Z M 18.03125 -15.875 C 18.03125 -17.050781 17.65625 -17.960938 16.90625 -18.609375 C 16.164062 -19.253906 15.066406 -19.578125 13.609375 -19.578125 L 9.640625 -19.578125 L 9.640625 -12.203125 L 13.609375 -12.203125 C 15.066406 -12.203125 16.164062 -12.519531 16.90625 -13.15625 C 17.65625 -13.789062 18.03125 -14.695312 18.03125 -15.875 Z M 18.03125 -15.875 "/></g></g></g><g fill="#1a1a1a" fill-opacity="1"><g transform="translate(186.525947, 244.989373)"><g><path d="M 14.140625 0.5 C 10.398438 0.5 7.488281 -0.515625 5.40625 -2.546875 C 3.332031 -4.585938 2.296875 -7.484375 2.296875 -11.234375 L 2.296875 -25.203125 L 9.4375 -25.203125 L 9.4375 -11.453125 C 9.4375 -7.421875 11.03125 -5.40625 14.21875 -5.40625 C 17.382812 -5.40625 18.96875 -7.421875 18.96875 -11.453125 L 18.96875 -25.203125 L 25.984375 -25.203125 L 25.984375 -11.234375 C 25.984375 -7.484375 24.945312 -4.585938 22.875 -2.546875 C 20.800781 -0.515625 17.890625 0.5 14.140625 0.5 Z M 14.140625 0.5 "/></g></g></g><g fill="#1a1a1a" fill-opacity="1"><g transform="translate(216.478, 244.989373)"><g><path d="M 26.5 -25.203125 L 26.5 0 L 20.625 0 L 9.5 -13.421875 L 9.5 0 L 2.515625 0 L 2.515625 -25.203125 L 8.390625 -25.203125 L 19.515625 -11.765625 L 19.515625 -25.203125 Z M 26.5 -25.203125 "/></g></g></g><g fill="#1a1a1a" fill-opacity="1"><g transform="translate(247.150052, 244.989373)"><g><path d="M 19.40625 -4.890625 L 8.75 -4.890625 L 6.765625 0 L -0.5 0 L 10.625 -25.203125 L 17.640625 -25.203125 L 28.796875 0 L 21.390625 0 Z M 17.3125 -10.15625 L 14.078125 -18.21875 L 10.84375 -10.15625 Z M 17.3125 -10.15625 "/></g></g></g><g fill="#1a1a1a" fill-opacity="1"><g transform="translate(108.488669, 267.01469)"><g><path d="M 4.671875 0.15625 C 3.859375 0.15625 3.070312 0.0390625 2.3125 -0.1875 C 1.5625 -0.425781 0.96875 -0.734375 0.53125 -1.109375 L 1.203125 -2.625 C 1.628906 -2.28125 2.15625 -2 2.78125 -1.78125 C 3.40625 -1.570312 4.035156 -1.46875 4.671875 -1.46875 C 5.441406 -1.46875 6.019531 -1.59375 6.40625 -1.84375 C 6.789062 -2.09375 6.984375 -2.421875 6.984375 -2.828125 C 6.984375 -3.128906 6.875 -3.378906 6.65625 -3.578125 C 6.445312 -3.773438 6.175781 -3.925781 5.84375 -4.03125 C 5.519531 -4.144531 5.070312 -4.269531 4.5 -4.40625 C 3.695312 -4.59375 3.046875 -4.78125 2.546875 -4.96875 C 2.054688 -5.164062 1.632812 -5.46875 1.28125 -5.875 C 0.925781 -6.28125 0.75 -6.828125 0.75 -7.515625 C 0.75 -8.097656 0.90625 -8.625 1.21875 -9.09375 C 1.53125 -9.570312 2.003906 -9.953125 2.640625 -10.234375 C 3.273438 -10.515625 4.054688 -10.65625 4.984375 -10.65625 C 5.617188 -10.65625 6.242188 -10.570312 6.859375 -10.40625 C 7.484375 -10.25 8.019531 -10.019531 8.46875 -9.71875 L 7.859375 -8.203125 C 7.398438 -8.472656 6.921875 -8.675781 6.421875 -8.8125 C 5.921875 -8.957031 5.4375 -9.03125 4.96875 -9.03125 C 4.195312 -9.03125 3.625 -8.898438 3.25 -8.640625 C 2.875 -8.378906 2.6875 -8.035156 2.6875 -7.609375 C 2.6875 -7.304688 2.789062 -7.054688 3 -6.859375 C 3.21875 -6.671875 3.488281 -6.519531 3.8125 -6.40625 C 4.144531 -6.300781 4.597656 -6.179688 5.171875 -6.046875 C 5.953125 -5.867188 6.59375 -5.679688 7.09375 -5.484375 C 7.59375 -5.285156 8.019531 -4.984375 8.375 -4.578125 C 8.726562 -4.179688 8.90625 -3.644531 8.90625 -2.96875 C 8.90625 -2.382812 8.75 -1.859375 8.4375 -1.390625 C 8.125 -0.921875 7.644531 -0.546875 7 -0.265625 C 6.363281 0.015625 5.585938 0.15625 4.671875 0.15625 Z M 4.671875 0.15625 "/></g></g></g><g fill="#1a1a1a" fill-opacity="1"><g transform="translate(118.613658, 267.01469)"><g><path d="M 6.3125 0.15625 C 5.238281 0.15625 4.269531 -0.078125 3.40625 -0.546875 C 2.550781 -1.015625 1.878906 -1.660156 1.390625 -2.484375 C 0.898438 -3.304688 0.65625 -4.226562 0.65625 -5.25 C 0.65625 -6.269531 0.898438 -7.191406 1.390625 -8.015625 C 1.878906 -8.835938 2.550781 -9.484375 3.40625 -9.953125 C 4.269531 -10.421875 5.238281 -10.65625 6.3125 -10.65625 C 7.382812 -10.65625 8.347656 -10.421875 9.203125 -9.953125 C 10.066406 -9.484375 10.742188 -8.835938 11.234375 -8.015625 C 11.722656 -7.203125 11.96875 -6.28125 11.96875 -5.25 C 11.96875 -4.21875 11.722656 -3.289062 11.234375 -2.46875 C 10.742188 -1.65625 10.066406 -1.015625 9.203125 -0.546875 C 8.347656 -0.078125 7.382812 0.15625 6.3125 0.15625 Z M 6.3125 -1.5625 C 7.007812 -1.5625 7.640625 -1.71875 8.203125 -2.03125 C 8.765625 -2.34375 9.203125 -2.78125 9.515625 -3.34375 C 9.835938 -3.914062 10 -4.550781 10 -5.25 C 10 -5.945312 9.835938 -6.578125 9.515625 -7.140625 C 9.203125 -7.710938 8.765625 -8.15625 8.203125 -8.46875 C 7.640625 -8.78125 7.007812 -8.9375 6.3125 -8.9375 C 5.613281 -8.9375 4.984375 -8.78125 4.421875 -8.46875 C 3.859375 -8.15625 3.414062 -7.710938 3.09375 -7.140625 C 2.78125 -6.578125 2.625 -5.945312 2.625 -5.25 C 2.625 -4.550781 2.78125 -3.914062 3.09375 -3.34375 C 3.414062 -2.78125 3.859375 -2.34375 4.421875 -2.03125 C 4.984375 -1.71875 5.613281 -1.5625 6.3125 -1.5625 Z M 6.3125 -1.5625 "/></g></g></g><g fill="#1a1a1a" fill-opacity="1"><g transform="translate(131.933643, 267.01469)"><g><path d="M 6.265625 0.15625 C 5.210938 0.15625 4.253906 -0.078125 3.390625 -0.546875 C 2.535156 -1.015625 1.863281 -1.65625 1.375 -2.46875 C 0.894531 -3.289062 0.65625 -4.21875 0.65625 -5.25 C 0.65625 -6.28125 0.898438 -7.203125 1.390625 -8.015625 C 1.878906 -8.835938 2.550781 -9.484375 3.40625 -9.953125 C 4.257812 -10.421875 5.21875 -10.65625 6.28125 -10.65625 C 7.144531 -10.65625 7.929688 -10.503906 8.640625 -10.203125 C 9.347656 -9.898438 9.945312 -9.460938 10.4375 -8.890625 L 9.1875 -7.703125 C 8.425781 -8.523438 7.488281 -8.9375 6.375 -8.9375 C 5.65625 -8.9375 5.007812 -8.78125 4.4375 -8.46875 C 3.863281 -8.15625 3.414062 -7.71875 3.09375 -7.15625 C 2.78125 -6.59375 2.625 -5.957031 2.625 -5.25 C 2.625 -4.539062 2.78125 -3.90625 3.09375 -3.34375 C 3.414062 -2.78125 3.863281 -2.34375 4.4375 -2.03125 C 5.007812 -1.71875 5.65625 -1.5625 6.375 -1.5625 C 7.488281 -1.5625 8.425781 -1.976562 9.1875 -2.8125 L 10.4375 -1.609375 C 9.945312 -1.035156 9.34375 -0.597656 8.625 -0.296875 C 7.914062 0.00390625 7.128906 0.15625 6.265625 0.15625 Z M 6.265625 0.15625 "/></g></g></g><g fill="#1a1a1a" fill-opacity="1"><g transform="translate(143.528639, 267.01469)"><g><path d="M 1.40625 -10.5 L 3.359375 -10.5 L 3.359375 0 L 1.40625 0 Z M 1.40625 -10.5 "/></g></g></g><g fill="#1a1a1a" fill-opacity="1"><g transform="translate(149.003629, 267.01469)"><g><path d="M 8.21875 -2.4375 L 2.96875 -2.4375 L 1.9375 0 L -0.078125 0 L 4.65625 -10.5 L 6.5625 -10.5 L 11.3125 0 L 9.265625 0 Z M 7.578125 -3.953125 L 5.59375 -8.546875 L 3.625 -3.953125 Z M 7.578125 -3.953125 "/></g></g></g><g fill="#1a1a1a" fill-opacity="1"><g transform="translate(160.928612, 267.01469)"><g><path d="M 1.40625 -10.5 L 3.359375 -10.5 L 3.359375 -1.65625 L 8.84375 -1.65625 L 8.84375 0 L 1.40625 0 Z M 1.40625 -10.5 "/></g></g></g><g fill="#1a1a1a" fill-opacity="1"><g transform="translate(170.603607, 267.01469)"><g/></g></g><g fill="#1a1a1a" fill-opacity="1"><g transform="translate(175.433597, 267.01469)"><g><path d="M 16.75 -10.5 L 13.28125 0 L 11.203125 0 L 8.609375 -7.765625 L 5.96875 0 L 3.890625 0 L 0.40625 -10.5 L 2.4375 -10.5 L 5.046875 -2.515625 L 7.75 -10.5 L 9.5625 -10.5 L 12.203125 -2.46875 L 14.890625 -10.5 Z M 16.75 -10.5 "/></g></g></g><g fill="#1a1a1a" fill-opacity="1"><g transform="translate(193.283576, 267.01469)"><g><path d="M 9.28125 -1.640625 L 9.28125 0 L 1.40625 0 L 1.40625 -10.5 L 9.078125 -10.5 L 9.078125 -8.859375 L 3.359375 -8.859375 L 3.359375 -6.140625 L 8.4375 -6.140625 L 8.4375 -4.53125 L 3.359375 -4.53125 L 3.359375 -1.640625 Z M 9.28125 -1.640625 "/></g></g></g><g fill="#1a1a1a" fill-opacity="1"><g transform="translate(204.023569, 267.01469)"><g><path d="M 1.40625 -10.5 L 3.359375 -10.5 L 3.359375 -1.65625 L 8.84375 -1.65625 L 8.84375 0 L 1.40625 0 Z M 1.40625 -10.5 "/></g></g></g><g fill="#1a1a1a" fill-opacity="1"><g transform="translate(213.69857, 267.01469)"><g><path d="M 1.40625 -10.5 L 3.359375 -10.5 L 3.359375 -1.65625 L 8.84375 -1.65625 L 8.84375 0 L 1.40625 0 Z M 1.40625 -10.5 "/></g></g></g><g fill="#1a1a1a" fill-opacity="1"><g transform="translate(223.373565, 267.01469)"><g><path d="M 10.734375 -10.5 L 10.734375 0 L 9.140625 0 L 3.34375 -7.109375 L 3.34375 0 L 1.40625 0 L 1.40625 -10.5 L 3.015625 -10.5 L 8.8125 -3.390625 L 8.8125 -10.5 Z M 10.734375 -10.5 "/></g></g></g><g fill="#1a1a1a" fill-opacity="1"><g transform="translate(236.213549, 267.01469)"><g><path d="M 9.28125 -1.640625 L 9.28125 0 L 1.40625 0 L 1.40625 -10.5 L 9.078125 -10.5 L 9.078125 -8.859375 L 3.359375 -8.859375 L 3.359375 -6.140625 L 8.4375 -6.140625 L 8.4375 -4.53125 L 3.359375 -4.53125 L 3.359375 -1.640625 Z M 9.28125 -1.640625 "/></g></g></g><g fill="#1a1a1a" fill-opacity="1"><g transform="translate(246.953542, 267.01469)"><g><path d="M 4.671875 0.15625 C 3.859375 0.15625 3.070312 0.0390625 2.3125 -0.1875 C 1.5625 -0.425781 0.96875 -0.734375 0.53125 -1.109375 L 1.203125 -2.625 C 1.628906 -2.28125 2.15625 -2 2.78125 -1.78125 C 3.40625 -1.570312 4.035156 -1.46875 4.671875 -1.46875 C 5.441406 -1.46875 6.019531 -1.59375 6.40625 -1.84375 C 6.789062 -2.09375 6.984375 -2.421875 6.984375 -2.828125 C 6.984375 -3.128906 6.875 -3.378906 6.65625 -3.578125 C 6.445312 -3.773438 6.175781 -3.925781 5.84375 -4.03125 C 5.519531 -4.144531 5.070312 -4.269531 4.5 -4.40625 C 3.695312 -4.59375 3.046875 -4.78125 2.546875 -4.96875 C 2.054688 -5.164062 1.632812 -5.46875 1.28125 -5.875 C 0.925781 -6.28125 0.75 -6.828125 0.75 -7.515625 C 0.75 -8.097656 0.90625 -8.625 1.21875 -9.09375 C 1.53125 -9.570312 2.003906 -9.953125 2.640625 -10.234375 C 3.273438 -10.515625 4.054688 -10.65625 4.984375 -10.65625 C 5.617188 -10.65625 6.242188 -10.570312 6.859375 -10.40625 C 7.484375 -10.25 8.019531 -10.019531 8.46875 -9.71875 L 7.859375 -8.203125 C 7.398438 -8.472656 6.921875 -8.675781 6.421875 -8.8125 C 5.921875 -8.957031 5.4375 -9.03125 4.96875 -9.03125 C 4.195312 -9.03125 3.625 -8.898438 3.25 -8.640625 C 2.875 -8.378906 2.6875 -8.035156 2.6875 -7.609375 C 2.6875 -7.304688 2.789062 -7.054688 3 -6.859375 C 3.21875 -6.671875 3.488281 -6.519531 3.8125 -6.40625 C 4.144531 -6.300781 4.597656 -6.179688 5.171875 -6.046875 C 5.953125 -5.867188 6.59375 -5.679688 7.09375 -5.484375 C 7.59375 -5.285156 8.019531 -4.984375 8.375 -4.578125 C 8.726562 -4.179688 8.90625 -3.644531 8.90625 -2.96875 C 8.90625 -2.382812 8.75 -1.859375 8.4375 -1.390625 C 8.125 -0.921875 7.644531 -0.546875 7 -0.265625 C 6.363281 0.015625 5.585938 0.15625 4.671875 0.15625 Z M 4.671875 0.15625 "/></g></g></g><g fill="#1a1a1a" fill-opacity="1"><g transform="translate(257.07853, 267.01469)"><g><path d="M 4.671875 0.15625 C 3.859375 0.15625 3.070312 0.0390625 2.3125 -0.1875 C 1.5625 -0.425781 0.96875 -0.734375 0.53125 -1.109375 L 1.203125 -2.625 C 1.628906 -2.28125 2.15625 -2 2.78125 -1.78125 C 3.40625 -1.570312 4.035156 -1.46875 4.671875 -1.46875 C 5.441406 -1.46875 6.019531 -1.59375 6.40625 -1.84375 C 6.789062 -2.09375 6.984375 -2.421875 6.984375 -2.828125 C 6.984375 -3.128906 6.875 -3.378906 6.65625 -3.578125 C 6.445312 -3.773438 6.175781 -3.925781 5.84375 -4.03125 C 5.519531 -4.144531 5.070312 -4.269531 4.5 -4.40625 C 3.695312 -4.59375 3.046875 -4.78125 2.546875 -4.96875 C 2.054688 -5.164062 1.632812 -5.46875 1.28125 -5.875 C 0.925781 -6.28125 0.75 -6.828125 0.75 -7.515625 C 0.75 -8.097656 0.90625 -8.625 1.21875 -9.09375 C 1.53125 -9.570312 2.003906 -9.953125 2.640625 -10.234375 C 3.273438 -10.515625 4.054688 -10.65625 4.984375 -10.65625 C 5.617188 -10.65625 6.242188 -10.570312 6.859375 -10.40625 C 7.484375 -10.25 8.019531 -10.019531 8.46875 -9.71875 L 7.859375 -8.203125 C 7.398438 -8.472656 6.921875 -8.675781 6.421875 -8.8125 C 5.921875 -8.957031 5.4375 -9.03125 4.96875 -9.03125 C 4.195312 -9.03125 3.625 -8.898438 3.25 -8.640625 C 2.875 -8.378906 2.6875 -8.035156 2.6875 -7.609375 C 2.6875 -7.304688 2.789062 -7.054688 3 -6.859375 C 3.21875 -6.671875 3.488281 -6.519531 3.8125 -6.40625 C 4.144531 -6.300781 4.597656 -6.179688 5.171875 -6.046875 C 5.953125 -5.867188 6.59375 -5.679688 7.09375 -5.484375 C 7.59375 -5.285156 8.019531 -4.984375 8.375 -4.578125 C 8.726562 -4.179688 8.90625 -3.644531 8.90625 -2.96875 C 8.90625 -2.382812 8.75 -1.859375 8.4375 -1.390625 C 8.125 -0.921875 7.644531 -0.546875 7 -0.265625 C 6.363281 0.015625 5.585938 0.15625 4.671875 0.15625 Z M 4.671875 0.15625 "/></g></g></g></svg>