<svg xmlns="http://www.w3.org/2000/svg" xmlns:xlink="http://www.w3.org/1999/xlink" width="500" zoomAndPan="magnify" viewBox="0 0 375 374.999991" height="500" preserveAspectRatio="xMidYMid meet" version="1.0"><defs><g/><clipPath id="61851df010"><path d="M 72.382812 156.316406 L 137.613281 156.316406 L 137.613281 218.566406 L 72.382812 218.566406 Z M 72.382812 156.316406 " clip-rule="nonzero"/></clipPath></defs><g clip-path="url(#61851df010)"><path fill="#1a1a1a" d="M 122.085938 156.320312 L 90.894531 187.507812 L 122.085938 218.5625 L 137.613281 218.5625 L 106.425781 187.507812 L 137.613281 156.320312 Z M 96.480469 218.5625 L 75.367188 197.449219 L 72.363281 194.589844 L 72.363281 218.5625 Z M 75.367188 190.375 L 103.554688 218.5625 L 115 218.5625 L 83.808594 187.507812 L 115 156.320312 L 103.554688 156.320312 L 75.367188 184.519531 L 72.363281 187.507812 Z M 75.367188 177.433594 L 96.480469 156.320312 L 72.363281 156.320312 L 72.363281 180.289062 Z M 75.367188 177.433594 " fill-opacity="1" fill-rule="nonzero"/></g><g fill="#1a1a1a" fill-opacity="1"><g transform="translate(137.721703, 199.124987)"><g><path d="M 12.234375 -9.140625 L 9.578125 -6.296875 L 9.578125 0 L 2.515625 0 L 2.515625 -25.203125 L 9.578125 -25.203125 L 9.578125 -14.71875 L 19.328125 -25.203125 L 27.1875 -25.203125 L 16.890625 -14.046875 L 27.71875 0 L 19.4375 0 Z M 12.234375 -9.140625 "/></g></g></g><g fill="#1a1a1a" fill-opacity="1"><g transform="translate(166.449754, 199.124987)"><g><path d="M 19.40625 -4.890625 L 8.75 -4.890625 L 6.765625 0 L -0.5 0 L 10.625 -25.203125 L 17.640625 -25.203125 L 28.796875 0 L 21.390625 0 Z M 17.3125 -10.15625 L 14.078125 -18.21875 L 10.84375 -10.15625 Z M 17.3125 -10.15625 "/></g></g></g><g fill="#1a1a1a" fill-opacity="1"><g transform="translate(196.401807, 199.124987)"><g><path d="M 13.53125 -6.703125 L 9.640625 -6.703125 L 9.640625 0 L 2.515625 0 L 2.515625 -25.203125 L 14.046875 -25.203125 C 16.316406 -25.203125 18.289062 -24.820312 19.96875 -24.0625 C 21.65625 -23.3125 22.953125 -22.234375 23.859375 -20.828125 C 24.773438 -19.421875 25.234375 -17.769531 25.234375 -15.875 C 25.234375 -14.050781 24.804688 -12.460938 23.953125 -11.109375 C 23.109375 -9.753906 21.890625 -8.691406 20.296875 -7.921875 L 25.734375 0 L 18.109375 0 Z M 18.03125 -15.875 C 18.03125 -17.050781 17.65625 -17.960938 16.90625 -18.609375 C 16.164062 -19.253906 15.066406 -19.578125 13.609375 -19.578125 L 9.640625 -19.578125 L 9.640625 -12.203125 L 13.609375 -12.203125 C 15.066406 -12.203125 16.164062 -12.519531 16.90625 -13.15625 C 17.65625 -13.789062 18.03125 -14.695312 18.03125 -15.875 Z M 18.03125 -15.875 "/></g></g></g><g fill="#1a1a1a" fill-opacity="1"><g transform="translate(224.697854, 199.124987)"><g><path d="M 14.140625 0.5 C 10.398438 0.5 7.488281 -0.515625 5.40625 -2.546875 C 3.332031 -4.585938 2.296875 -7.484375 2.296875 -11.234375 L 2.296875 -25.203125 L 9.4375 -25.203125 L 9.4375 -11.453125 C 9.4375 -7.421875 11.03125 -5.40625 14.21875 -5.40625 C 17.382812 -5.40625 18.96875 -7.421875 18.96875 -11.453125 L 18.96875 -25.203125 L 25.984375 -25.203125 L 25.984375 -11.234375 C 25.984375 -7.484375 24.945312 -4.585938 22.875 -2.546875 C 20.800781 -0.515625 17.890625 0.5 14.140625 0.5 Z M 14.140625 0.5 "/></g></g></g><g fill="#1a1a1a" fill-opacity="1"><g transform="translate(254.649907, 199.124987)"><g><path d="M 26.5 -25.203125 L 26.5 0 L 20.625 0 L 9.5 -13.421875 L 9.5 0 L 2.515625 0 L 2.515625 -25.203125 L 8.390625 -25.203125 L 19.515625 -11.765625 L 19.515625 -25.203125 Z M 26.5 -25.203125 "/></g></g></g><g fill="#1a1a1a" fill-opacity="1"><g transform="translate(285.321959, 199.124987)"><g><path d="M 19.40625 -4.890625 L 8.75 -4.890625 L 6.765625 0 L -0.5 0 L 10.625 -25.203125 L 17.640625 -25.203125 L 28.796875 0 L 21.390625 0 Z M 17.3125 -10.15625 L 14.078125 -18.21875 L 10.84375 -10.15625 Z M 17.3125 -10.15625 "/></g></g></g></svg>