<svg xmlns="http://www.w3.org/2000/svg" xmlns:xlink="http://www.w3.org/1999/xlink" width="500" zoomAndPan="magnify" viewBox="0 0 375 374.999991" height="500" preserveAspectRatio="xMidYMid meet" version="1.0"><defs><g/><clipPath id="86a6bb52df"><path d="M 72.382812 156.316406 L 137.613281 156.316406 L 137.613281 218.566406 L 72.382812 218.566406 Z M 72.382812 156.316406 " clip-rule="nonzero"/></clipPath></defs><g clip-path="url(#86a6bb52df)"><path fill="#ffffff" d="M 122.085938 156.320312 L 90.894531 187.507812 L 122.085938 218.5625 L 137.613281 218.5625 L 106.425781 187.507812 L 137.613281 156.320312 Z M 96.480469 218.5625 L 75.367188 197.449219 L 72.363281 194.589844 L 72.363281 218.5625 Z M 75.367188 190.375 L 103.554688 218.5625 L 115 218.5625 L 83.808594 187.507812 L 115 156.320312 L 103.554688 156.320312 L 75.367188 184.519531 L 72.363281 187.507812 Z M 75.367188 177.433594 L 96.480469 156.320312 L 72.363281 156.320312 L 72.363281 180.289062 Z M 75.367188 177.433594 " fill-opacity="1" fill-rule="nonzero"/></g><g fill="#ffffff" fill-opacity="1"><g transform="translate(137.721703, 199.874987)"><g><path d="M 12.25 -9.15625 L 9.578125 -6.3125 L 9.578125 0 L 2.515625 0 L 2.515625 -25.21875 L 9.578125 -25.21875 L 9.578125 -14.734375 L 19.34375 -25.21875 L 27.203125 -25.21875 L 16.90625 -14.046875 L 27.75 0 L 19.453125 0 Z M 12.25 -9.15625 "/></g></g></g><g fill="#ffffff" fill-opacity="1"><g transform="translate(166.468797, 199.874987)"><g><path d="M 19.421875 -4.90625 L 8.75 -4.90625 L 6.78125 0 L -0.5 0 L 10.625 -25.21875 L 17.65625 -25.21875 L 28.828125 0 L 21.40625 0 Z M 17.328125 -10.15625 L 14.09375 -18.234375 L 10.84375 -10.15625 Z M 17.328125 -10.15625 "/></g></g></g><g fill="#ffffff" fill-opacity="1"><g transform="translate(196.440682, 199.874987)"><g><path d="M 13.546875 -6.703125 L 9.65625 -6.703125 L 9.65625 0 L 2.515625 0 L 2.515625 -25.21875 L 14.046875 -25.21875 C 16.328125 -25.21875 18.304688 -24.835938 19.984375 -24.078125 C 21.671875 -23.328125 22.972656 -22.25 23.890625 -20.84375 C 24.804688 -19.4375 25.265625 -17.785156 25.265625 -15.890625 C 25.265625 -14.066406 24.835938 -12.472656 23.984375 -11.109375 C 23.128906 -9.753906 21.910156 -8.691406 20.328125 -7.921875 L 25.765625 0 L 18.125 0 Z M 18.046875 -15.890625 C 18.046875 -17.066406 17.671875 -17.976562 16.921875 -18.625 C 16.179688 -19.269531 15.082031 -19.59375 13.625 -19.59375 L 9.65625 -19.59375 L 9.65625 -12.21875 L 13.625 -12.21875 C 15.082031 -12.21875 16.179688 -12.535156 16.921875 -13.171875 C 17.671875 -13.804688 18.046875 -14.710938 18.046875 -15.890625 Z M 18.046875 -15.890625 "/></g></g></g><g fill="#ffffff" fill-opacity="1"><g transform="translate(224.755487, 199.874987)"><g><path d="M 14.15625 0.5 C 10.414062 0.5 7.503906 -0.519531 5.421875 -2.5625 C 3.347656 -4.601562 2.3125 -7.492188 2.3125 -11.234375 L 2.3125 -25.21875 L 9.4375 -25.21875 L 9.4375 -11.453125 C 9.4375 -7.421875 11.035156 -5.40625 14.234375 -5.40625 C 17.398438 -5.40625 18.984375 -7.421875 18.984375 -11.453125 L 18.984375 -25.21875 L 26.015625 -25.21875 L 26.015625 -11.234375 C 26.015625 -7.492188 24.972656 -4.601562 22.890625 -2.5625 C 20.816406 -0.519531 17.90625 0.5 14.15625 0.5 Z M 14.15625 0.5 "/></g></g></g><g fill="#ffffff" fill-opacity="1"><g transform="translate(254.727373, 199.874987)"><g><path d="M 26.515625 -25.21875 L 26.515625 0 L 20.640625 0 L 9.515625 -13.4375 L 9.515625 0 L 2.515625 0 L 2.515625 -25.21875 L 8.390625 -25.21875 L 19.53125 -11.78125 L 19.53125 -25.21875 Z M 26.515625 -25.21875 "/></g></g></g><g fill="#ffffff" fill-opacity="1"><g transform="translate(285.419738, 199.874987)"><g><path d="M 19.421875 -4.90625 L 8.75 -4.90625 L 6.78125 0 L -0.5 0 L 10.625 -25.21875 L 17.65625 -25.21875 L 28.828125 0 L 21.40625 0 Z M 17.328125 -10.15625 L 14.09375 -18.234375 L 10.84375 -10.15625 Z M 17.328125 -10.15625 "/></g></g></g></svg>