<svg xmlns="http://www.w3.org/2000/svg" xmlns:xlink="http://www.w3.org/1999/xlink" width="500" zoomAndPan="magnify" viewBox="0 0 375 374.999991" height="500" preserveAspectRatio="xMidYMid meet" version="1.0"><defs><g/><clipPath id="224f826388"><path d="M 136.773438 99.335938 L 237.996094 99.335938 L 237.996094 196.085938 L 136.773438 196.085938 Z M 136.773438 99.335938 " clip-rule="nonzero"/></clipPath></defs><g clip-path="url(#224f826388)"><path fill="#ffffff" d="M 213.894531 99.335938 L 165.503906 147.8125 L 213.894531 196.085938 L 237.992188 196.085938 L 189.597656 147.8125 L 237.992188 99.335938 Z M 174.167969 196.085938 L 141.40625 163.265625 L 136.75 158.824219 L 136.75 196.085938 Z M 141.40625 152.273438 L 185.144531 196.085938 L 202.902344 196.085938 L 154.507812 147.8125 L 202.902344 99.335938 L 185.144531 99.335938 L 141.40625 143.164062 L 136.75 147.8125 Z M 141.40625 132.152344 L 174.167969 99.335938 L 136.75 99.335938 L 136.75 136.59375 Z M 141.40625 132.152344 " fill-opacity="1" fill-rule="nonzero"/></g><g fill="#ffffff" fill-opacity="1"><g transform="translate(109.589026, 244.070656)"><g><path d="M 15.5625 0.4375 L 8.46875 -9.375 L 8.46875 0.4375 L 1.90625 0.4375 L 1.90625 -22.484375 L 8.46875 -22.484375 L 8.46875 -13.75 L 15.015625 -22.484375 L 23.1875 -22.484375 L 14.453125 -11.5625 L 23.734375 0.4375 Z M 15.5625 0.4375 "/></g></g></g><g fill="#ffffff" fill-opacity="1"><g transform="translate(135.519551, 244.070656)"><g><path d="M 18.171875 0.4375 L 16.71875 -3.375 L 7.84375 -3.375 L 6.390625 0.4375 L -0.265625 0.4375 L 9.21875 -22.484375 L 15.34375 -22.484375 L 24.828125 0.4375 Z M 12.265625 -14.828125 L 9.75 -8.296875 L 14.8125 -8.296875 Z M 12.265625 -14.828125 "/></g></g></g><g fill="#ffffff" fill-opacity="1"><g transform="translate(161.990723, 244.070656)"><g><path d="M 9.71875 -6.65625 L 8.46875 -6.65625 L 8.46875 0.4375 L 1.90625 0.4375 L 1.90625 -22.484375 L 12.265625 -22.484375 C 14.210938 -22.484375 15.835938 -22.160156 17.140625 -21.515625 C 18.441406 -20.867188 19.410156 -19.96875 20.046875 -18.8125 C 20.679688 -17.664062 21 -16.335938 21 -14.828125 C 21 -13.109375 20.597656 -11.566406 19.796875 -10.203125 C 19.003906 -8.835938 17.894531 -7.859375 16.46875 -7.265625 L 22.109375 0.4375 L 14.453125 0.4375 Z M 11.671875 -12.109375 C 12.484375 -12.109375 13.148438 -12.3125 13.671875 -12.71875 C 14.191406 -13.125 14.453125 -13.738281 14.453125 -14.5625 C 14.453125 -15.363281 14.191406 -15.972656 13.671875 -16.390625 C 13.148438 -16.804688 12.484375 -17.015625 11.671875 -17.015625 L 8.46875 -17.015625 L 8.46875 -12.109375 Z M 11.671875 -12.109375 "/></g></g></g><g fill="#ffffff" fill-opacity="1"><g transform="translate(186.819143, 244.070656)"><g><path d="M 23.1875 -9.375 C 23.1875 -7.363281 22.742188 -5.570312 21.859375 -4 C 20.984375 -2.425781 19.722656 -1.195312 18.078125 -0.3125 C 16.441406 0.5625 14.503906 1 12.265625 1 C 10.035156 1 8.097656 0.5625 6.453125 -0.3125 C 4.816406 -1.195312 3.5625 -2.425781 2.6875 -4 C 1.8125 -5.570312 1.375 -7.363281 1.375 -9.375 L 1.375 -22.484375 L 8.46875 -22.484375 L 8.46875 -9.3125 C 8.46875 -8.394531 8.644531 -7.609375 9 -6.953125 C 9.363281 -6.304688 9.835938 -5.820312 10.421875 -5.5 C 11.003906 -5.175781 11.617188 -5.015625 12.265625 -5.015625 C 12.929688 -5.015625 13.554688 -5.175781 14.140625 -5.5 C 14.722656 -5.820312 15.191406 -6.304688 15.546875 -6.953125 C 15.910156 -7.609375 16.09375 -8.394531 16.09375 -9.3125 L 16.09375 -22.484375 L 23.1875 -22.484375 Z M 23.1875 -9.375 "/></g></g></g><g fill="#ffffff" fill-opacity="1"><g transform="translate(213.290315, 244.070656)"><g><path d="M 23.734375 0.4375 L 17.203125 0.4375 L 8.46875 -12.109375 L 8.46875 0.4375 L 1.90625 0.4375 L 1.90625 -22.484375 L 8.46875 -22.484375 L 17.203125 -9.921875 L 17.203125 -22.484375 L 23.734375 -22.484375 Z M 23.734375 0.4375 "/></g></g></g><g fill="#ffffff" fill-opacity="1"><g transform="translate(240.842802, 244.070656)"><g><path d="M 18.171875 0.4375 L 16.71875 -3.375 L 7.84375 -3.375 L 6.390625 0.4375 L -0.265625 0.4375 L 9.21875 -22.484375 L 15.34375 -22.484375 L 24.828125 0.4375 Z M 12.265625 -14.828125 L 9.75 -8.296875 L 14.8125 -8.296875 Z M 12.265625 -14.828125 "/></g></g></g><g fill="#ffffff" fill-opacity="1"><g transform="translate(116.994909, 268.12501)"><g><path d="M 4.671875 -6.1875 C 5.554688 -6 6.273438 -5.785156 6.828125 -5.546875 C 7.390625 -5.316406 7.832031 -4.992188 8.15625 -4.578125 C 8.488281 -4.160156 8.65625 -3.617188 8.65625 -2.953125 C 8.65625 -2.335938 8.492188 -1.789062 8.171875 -1.3125 C 7.859375 -0.832031 7.394531 -0.453125 6.78125 -0.171875 C 6.164062 0.0976562 5.425781 0.234375 4.5625 0.234375 C 3.738281 0.234375 2.96875 0.078125 2.25 -0.234375 C 1.53125 -0.554688 0.9375 -0.945312 0.46875 -1.40625 L 1.53125 -3.265625 C 2.03125 -2.773438 2.539062 -2.414062 3.0625 -2.1875 C 3.59375 -1.96875 4.09375 -1.859375 4.5625 -1.859375 C 5.726562 -1.859375 6.3125 -2.175781 6.3125 -2.8125 C 6.3125 -3.050781 6.191406 -3.242188 5.953125 -3.390625 C 5.710938 -3.546875 5.285156 -3.675781 4.671875 -3.78125 C 3.347656 -4.007812 2.375 -4.367188 1.75 -4.859375 C 1.132812 -5.359375 0.828125 -6.03125 0.828125 -6.875 C 0.828125 -7.445312 0.976562 -7.972656 1.28125 -8.453125 C 1.59375 -8.941406 2.046875 -9.328125 2.640625 -9.609375 C 3.234375 -9.898438 3.921875 -10.046875 4.703125 -10.046875 C 5.148438 -10.046875 5.71875 -9.960938 6.40625 -9.796875 C 7.09375 -9.640625 7.710938 -9.304688 8.265625 -8.796875 L 7.25 -6.953125 C 6.976562 -7.234375 6.617188 -7.46875 6.171875 -7.65625 C 5.722656 -7.851562 5.222656 -7.953125 4.671875 -7.953125 C 4.253906 -7.953125 3.894531 -7.875 3.59375 -7.71875 C 3.300781 -7.570312 3.15625 -7.375 3.15625 -7.125 C 3.15625 -6.96875 3.195312 -6.832031 3.28125 -6.71875 C 3.375 -6.613281 3.53125 -6.519531 3.75 -6.4375 C 3.96875 -6.351562 4.273438 -6.269531 4.671875 -6.1875 Z M 4.671875 -6.1875 "/></g></g></g><g fill="#ffffff" fill-opacity="1"><g transform="translate(126.977114, 268.12501)"><g><path d="M 5.734375 -10.046875 C 6.691406 -10.046875 7.570312 -9.816406 8.375 -9.359375 C 9.175781 -8.898438 9.8125 -8.273438 10.28125 -7.484375 C 10.757812 -6.703125 11 -5.84375 11 -4.90625 C 11 -3.976562 10.757812 -3.117188 10.28125 -2.328125 C 9.8125 -1.546875 9.171875 -0.921875 8.359375 -0.453125 C 7.554688 0.00390625 6.679688 0.234375 5.734375 0.234375 C 4.773438 0.234375 3.894531 0.00390625 3.09375 -0.453125 C 2.289062 -0.921875 1.648438 -1.546875 1.171875 -2.328125 C 0.703125 -3.117188 0.46875 -3.976562 0.46875 -4.90625 C 0.46875 -5.84375 0.703125 -6.703125 1.171875 -7.484375 C 1.648438 -8.273438 2.289062 -8.898438 3.09375 -9.359375 C 3.894531 -9.816406 4.773438 -10.046875 5.734375 -10.046875 Z M 5.734375 -1.859375 C 6.265625 -1.859375 6.75 -1.992188 7.1875 -2.265625 C 7.632812 -2.546875 7.988281 -2.921875 8.25 -3.390625 C 8.519531 -3.859375 8.65625 -4.363281 8.65625 -4.90625 C 8.65625 -5.457031 8.519531 -5.960938 8.25 -6.421875 C 7.988281 -6.890625 7.632812 -7.257812 7.1875 -7.53125 C 6.75 -7.8125 6.265625 -7.953125 5.734375 -7.953125 C 5.203125 -7.953125 4.710938 -7.8125 4.265625 -7.53125 C 3.816406 -7.257812 3.460938 -6.894531 3.203125 -6.4375 C 2.941406 -5.976562 2.8125 -5.46875 2.8125 -4.90625 C 2.8125 -4.351562 2.941406 -3.84375 3.203125 -3.375 C 3.460938 -2.914062 3.816406 -2.546875 4.265625 -2.265625 C 4.710938 -1.992188 5.203125 -1.859375 5.734375 -1.859375 Z M 5.734375 -1.859375 "/></g></g></g><g fill="#ffffff" fill-opacity="1"><g transform="translate(139.296992, 268.12501)"><g><path d="M 5.84375 -1.859375 C 6.3125 -1.859375 6.75 -1.960938 7.15625 -2.171875 C 7.570312 -2.378906 7.925781 -2.660156 8.21875 -3.015625 L 9.125 -0.953125 C 8.707031 -0.578125 8.203125 -0.285156 7.609375 -0.078125 C 7.015625 0.128906 6.425781 0.234375 5.84375 0.234375 C 4.875 0.234375 3.976562 0.00390625 3.15625 -0.453125 C 2.332031 -0.921875 1.675781 -1.546875 1.1875 -2.328125 C 0.707031 -3.117188 0.46875 -3.976562 0.46875 -4.90625 C 0.46875 -5.84375 0.707031 -6.703125 1.1875 -7.484375 C 1.675781 -8.273438 2.332031 -8.898438 3.15625 -9.359375 C 3.976562 -9.816406 4.875 -10.046875 5.84375 -10.046875 C 6.425781 -10.046875 7.015625 -9.941406 7.609375 -9.734375 C 8.203125 -9.535156 8.707031 -9.25 9.125 -8.875 L 8.21875 -6.8125 C 7.925781 -7.164062 7.578125 -7.441406 7.171875 -7.640625 C 6.765625 -7.847656 6.320312 -7.953125 5.84375 -7.953125 C 5.289062 -7.953125 4.78125 -7.8125 4.3125 -7.53125 C 3.851562 -7.257812 3.488281 -6.894531 3.21875 -6.4375 C 2.945312 -5.976562 2.8125 -5.46875 2.8125 -4.90625 C 2.8125 -4.351562 2.945312 -3.84375 3.21875 -3.375 C 3.488281 -2.914062 3.851562 -2.546875 4.3125 -2.265625 C 4.78125 -1.992188 5.289062 -1.859375 5.84375 -1.859375 Z M 5.84375 -1.859375 "/></g></g></g><g fill="#ffffff" fill-opacity="1"><g transform="translate(149.750503, 268.12501)"><g><path d="M 0.9375 -9.828125 L 3.265625 -9.828125 L 3.265625 0 L 0.9375 0 Z M 0.9375 -9.828125 "/></g></g></g><g fill="#ffffff" fill-opacity="1"><g transform="translate(154.821724, 268.12501)"><g><path d="M 3.1875 -1.640625 L 2.578125 0 L 0 0 L 4.0625 -9.828125 L 6.21875 -9.828125 L 10.28125 0 L 7.71875 0 L 7.09375 -1.640625 Z M 5.15625 -6.78125 L 3.984375 -3.75 L 6.296875 -3.75 Z M 5.15625 -6.78125 "/></g></g></g><g fill="#ffffff" fill-opacity="1"><g transform="translate(165.972759, 268.12501)"><g><path d="M 7.015625 0 L 0.9375 0 L 0.9375 -9.828125 L 3.265625 -9.828125 L 3.265625 -2.109375 L 7.015625 -2.109375 Z M 7.015625 0 "/></g></g></g><g fill="#ffffff" fill-opacity="1"><g transform="translate(174.324251, 268.12501)"><g/></g></g><g fill="#ffffff" fill-opacity="1"><g transform="translate(176.888137, 268.12501)"><g><path d="M 12.28125 -9.828125 L 14.859375 -9.828125 L 11.28125 0 L 9.171875 0 L 7.484375 -5.40625 L 5.796875 0 L 3.6875 0 L 0.109375 -9.828125 L 2.6875 -9.828125 L 4.671875 -3.71875 L 6.4375 -9.828125 L 8.53125 -9.828125 L 10.28125 -3.71875 Z M 12.28125 -9.828125 "/></g></g></g><g fill="#ffffff" fill-opacity="1"><g transform="translate(192.714508, 268.12501)"><g><path d="M 3.265625 -5.953125 L 6.546875 -5.953125 L 6.546875 -3.859375 L 3.265625 -3.859375 L 3.265625 -2.109375 L 7.25 -2.109375 L 7.25 0 L 0.9375 0 L 0.9375 -9.828125 L 7.25 -9.828125 L 7.25 -7.71875 L 3.265625 -7.71875 Z M 3.265625 -5.953125 "/></g></g></g><g fill="#ffffff" fill-opacity="1"><g transform="translate(201.527886, 268.12501)"><g><path d="M 7.015625 0 L 0.9375 0 L 0.9375 -9.828125 L 3.265625 -9.828125 L 3.265625 -2.109375 L 7.015625 -2.109375 Z M 7.015625 0 "/></g></g></g><g fill="#ffffff" fill-opacity="1"><g transform="translate(209.879381, 268.12501)"><g><path d="M 7.015625 0 L 0.9375 0 L 0.9375 -9.828125 L 3.265625 -9.828125 L 3.265625 -2.109375 L 7.015625 -2.109375 Z M 7.015625 0 "/></g></g></g><g fill="#ffffff" fill-opacity="1"><g transform="translate(218.230875, 268.12501)"><g><path d="M 10.046875 0 L 7.71875 0 L 3.265625 -6.078125 L 3.265625 0 L 0.9375 0 L 0.9375 -9.828125 L 3.265625 -9.828125 L 7.71875 -3.75 L 7.71875 -9.828125 L 10.046875 -9.828125 Z M 10.046875 0 "/></g></g></g><g fill="#ffffff" fill-opacity="1"><g transform="translate(230.088871, 268.12501)"><g><path d="M 3.265625 -5.953125 L 6.546875 -5.953125 L 6.546875 -3.859375 L 3.265625 -3.859375 L 3.265625 -2.109375 L 7.25 -2.109375 L 7.25 0 L 0.9375 0 L 0.9375 -9.828125 L 7.25 -9.828125 L 7.25 -7.71875 L 3.265625 -7.71875 Z M 3.265625 -5.953125 "/></g></g></g><g fill="#ffffff" fill-opacity="1"><g transform="translate(238.90225, 268.12501)"><g><path d="M 4.671875 -6.1875 C 5.554688 -6 6.273438 -5.785156 6.828125 -5.546875 C 7.390625 -5.316406 7.832031 -4.992188 8.15625 -4.578125 C 8.488281 -4.160156 8.65625 -3.617188 8.65625 -2.953125 C 8.65625 -2.335938 8.492188 -1.789062 8.171875 -1.3125 C 7.859375 -0.832031 7.394531 -0.453125 6.78125 -0.171875 C 6.164062 0.0976562 5.425781 0.234375 4.5625 0.234375 C 3.738281 0.234375 2.96875 0.078125 2.25 -0.234375 C 1.53125 -0.554688 0.9375 -0.945312 0.46875 -1.40625 L 1.53125 -3.265625 C 2.03125 -2.773438 2.539062 -2.414062 3.0625 -2.1875 C 3.59375 -1.96875 4.09375 -1.859375 4.5625 -1.859375 C 5.726562 -1.859375 6.3125 -2.175781 6.3125 -2.8125 C 6.3125 -3.050781 6.191406 -3.242188 5.953125 -3.390625 C 5.710938 -3.546875 5.285156 -3.675781 4.671875 -3.78125 C 3.347656 -4.007812 2.375 -4.367188 1.75 -4.859375 C 1.132812 -5.359375 0.828125 -6.03125 0.828125 -6.875 C 0.828125 -7.445312 0.976562 -7.972656 1.28125 -8.453125 C 1.59375 -8.941406 2.046875 -9.328125 2.640625 -9.609375 C 3.234375 -9.898438 3.921875 -10.046875 4.703125 -10.046875 C 5.148438 -10.046875 5.71875 -9.960938 6.40625 -9.796875 C 7.09375 -9.640625 7.710938 -9.304688 8.265625 -8.796875 L 7.25 -6.953125 C 6.976562 -7.234375 6.617188 -7.46875 6.171875 -7.65625 C 5.722656 -7.851562 5.222656 -7.953125 4.671875 -7.953125 C 4.253906 -7.953125 3.894531 -7.875 3.59375 -7.71875 C 3.300781 -7.570312 3.15625 -7.375 3.15625 -7.125 C 3.15625 -6.96875 3.195312 -6.832031 3.28125 -6.71875 C 3.375 -6.613281 3.53125 -6.519531 3.75 -6.4375 C 3.96875 -6.351562 4.273438 -6.269531 4.671875 -6.1875 Z M 4.671875 -6.1875 "/></g></g></g><g fill="#ffffff" fill-opacity="1"><g transform="translate(248.884458, 268.12501)"><g><path d="M 4.671875 -6.1875 C 5.554688 -6 6.273438 -5.785156 6.828125 -5.546875 C 7.390625 -5.316406 7.832031 -4.992188 8.15625 -4.578125 C 8.488281 -4.160156 8.65625 -3.617188 8.65625 -2.953125 C 8.65625 -2.335938 8.492188 -1.789062 8.171875 -1.3125 C 7.859375 -0.832031 7.394531 -0.453125 6.78125 -0.171875 C 6.164062 0.0976562 5.425781 0.234375 4.5625 0.234375 C 3.738281 0.234375 2.96875 0.078125 2.25 -0.234375 C 1.53125 -0.554688 0.9375 -0.945312 0.46875 -1.40625 L 1.53125 -3.265625 C 2.03125 -2.773438 2.539062 -2.414062 3.0625 -2.1875 C 3.59375 -1.96875 4.09375 -1.859375 4.5625 -1.859375 C 5.726562 -1.859375 6.3125 -2.175781 6.3125 -2.8125 C 6.3125 -3.050781 6.191406 -3.242188 5.953125 -3.390625 C 5.710938 -3.546875 5.285156 -3.675781 4.671875 -3.78125 C 3.347656 -4.007812 2.375 -4.367188 1.75 -4.859375 C 1.132812 -5.359375 0.828125 -6.03125 0.828125 -6.875 C 0.828125 -7.445312 0.976562 -7.972656 1.28125 -8.453125 C 1.59375 -8.941406 2.046875 -9.328125 2.640625 -9.609375 C 3.234375 -9.898438 3.921875 -10.046875 4.703125 -10.046875 C 5.148438 -10.046875 5.71875 -9.960938 6.40625 -9.796875 C 7.09375 -9.640625 7.710938 -9.304688 8.265625 -8.796875 L 7.25 -6.953125 C 6.976562 -7.234375 6.617188 -7.46875 6.171875 -7.65625 C 5.722656 -7.851562 5.222656 -7.953125 4.671875 -7.953125 C 4.253906 -7.953125 3.894531 -7.875 3.59375 -7.71875 C 3.300781 -7.570312 3.15625 -7.375 3.15625 -7.125 C 3.15625 -6.96875 3.195312 -6.832031 3.28125 -6.71875 C 3.375 -6.613281 3.53125 -6.519531 3.75 -6.4375 C 3.96875 -6.351562 4.273438 -6.269531 4.671875 -6.1875 Z M 4.671875 -6.1875 "/></g></g></g></svg>